<svg xmlns="http://www.w3.org/2000/svg" viewBox="0 0 2036.31 590.72"><defs><style>.cls-1{fill:#097255;}.cls-2{fill:#ec7b23;}.cls-3{fill:#1b4580;}</style></defs><g id="Layer_2" data-name="Layer 2"><g id="Layer_1-2" data-name="Layer 1"><path class="cls-1" d="M969.67,301.17H974c13.5.07,18.53,7,14.25,19.88-1.41,4.24-4.46,6.76-9.12,6.83-6.25.09-12.49.1-18.73.17a9,9,0,0,1-6-1.86c-3.63-3-5.71-13.17-3.59-18.93,2-5.46,6.5-6.47,11.71-6.09,2.39.18,4.8,0,7.2,0Z"/><path class="cls-1" d="M969.44,231.56h-3.62c-13.73-.05-19-7.1-15.05-20.39,1.21-4,4.1-6.47,8.53-6.5,7,0,14-.09,21,.05,5.21.11,7.88,3.2,8.32,8.17a67.72,67.72,0,0,1-.07,7.93c-.23,7.74-3.26,10.67-11.12,10.78-2.65,0-5.3,0-7.95,0Z"/><path class="cls-1" d="M969.92,253c1,0,1.93.06,2.88,0,17.78-1.3,16.35,5.67,15.54,19.41-.29,4.88-4,7.46-9,7.46-6.48,0-13,.06-19.43-.1s-9.39-3.89-9.68-10c-.67-14.69.88-16.54,14-16.66,1.91,0,3.83,0,5.75,0Z"/><path class="cls-1" d="M1002.87,261.78c0-9.78,1.79-12,11.4-14.27,4.68-1.12,9.36-2.31,14-3.76,3.79-1.19,6.59-.33,8.68,3,5.29,8.43,1,20.47-8.49,23.44-3.67,1.15-7.43,2-11.18,2.86C1005.52,275.77,1002.9,273.69,1002.87,261.78Z"/><path class="cls-1" d="M935.82,213c-.07,13.26-.06,13.06-12.32,11.91a58.18,58.18,0,0,1-8.44-1.1c-13.35-3.21-16.14-7.29-14.23-20.78.81-5.73,4.95-8.89,10.64-7.59,6.06,1.39,12.07,3.11,18,5C936.31,202.59,936.11,208.35,935.82,213Z"/><path class="cls-1" d="M936.25,262.51c-.11,11-2.86,13.27-13.88,11.1A109.19,109.19,0,0,1,908.58,270c-4.68-1.56-7.83-4.79-7.88-10.06-.16-15.39.42-19.62,17.16-14.22,2.29.73,4.64,1.28,7,1.88C935.09,250.23,936.35,251.86,936.25,262.51Z"/><path class="cls-1" d="M1037.54,302.15c0,9-2.86,13.13-11.5,15.85-4.58,1.44-9.25,2.66-13.95,3.64-6.6,1.37-9.49-.95-9.68-7.41a69.45,69.45,0,0,0-.07-7.22c-.91-7,3.11-9.83,9-11.43,4.17-1.15,8.31-2.4,12.45-3.67C1034.65,288.57,1037.49,290.67,1037.54,302.15Z"/><path class="cls-1" d="M1037.44,208.23c-.1,9.75-1.87,12.12-11.31,14.57a137.23,137.23,0,0,1-14.8,3.28c-5.07.73-8.21-1.62-8.74-7-1.38-14,.71-17,14.54-20.55,2.1-.53,4.21-1,6.32-1.54C1035.13,194.07,1037.57,196,1037.44,208.23Z"/><path class="cls-1" d="M936.22,311.08c-.06,10-2.76,12.15-12.26,9.69-3.73-1-7.46-2-11.12-3.14-8.06-2.61-10.93-7-10.4-15.5.75-12.14,1.95-13,14.28-9.65,2.32.62,4.63,1.3,6.95,2C935,297.63,936.28,299.33,936.22,311.08Z"/><path class="cls-2" d="M883,115.61c4-28,22-80.46,89.56-82.77,55-1.88,82.86,46.56,86.08,84.6,6.75.66,19.6-.44,29.35.44C1086.29,64.8,1040.65.33,971.86,0S855.76,59.05,854.21,116.11C860.69,116,883,115.61,883,115.61Z"/><path class="cls-1" d="M1107.2,296.32c-9,55.65-44.35,90.7-100.29,98.3-29.24,4-58.61,3.66-87.69-3.29C875,380.76,842.13,346,834.61,300.93a224,224,0,0,1-3.22-38.1q.2-38.53.09-77h-.2V147h50.9c.17,0,.11,6.61.11,7,0,2.93,0,5.87,0,8.79,0,1.25,0,2.51,0,3.75,0,4.6,0,9.2,0,13.82s0,9.2,0,13.81v27.64q0,6.9,0,13.81v27.64q0,6.9,0,13.81v.62c-.06,32,18.37,59.73,47,68,29.06,8.45,58.3,9.28,86.54-1.88,27.27-10.78,40.72-33,41.7-61.62,1.07-30.8.84-61.67.06-92.49,0-1.32,0-2.65,0-4h-.2V147l52.06,0c-.14,0-.09,8-.07,8.68.42,12,0,24,0,36s.42,24.18,0,36.23C1108.65,247.28,1111.14,272,1107.2,296.32Z"/><path class="cls-1" d="M0,392.62V55.67H63.84V216.21L190.56,55.67h80.86L143.75,211.75,284.66,392.62H203.33L104,261.8,63.84,310.36v82.26Z"/><path class="cls-1" d="M293.17,329.69c0-100.59,154.15-53.52,157.93-100.59-1.41-25.28-15.13-36.67-44-36.67-27.9,0-42.56,8.42-44.92,35.67H302.63c2.36-46.57,30.73-81.76,105-81.76,66.67,0,104.5,25.77,104.5,82.76v90.18c0,14.87,4.26,20.81,12.77,20.81h8v52.53H509.27c-27.9,0-43-9.91-50.13-30.73-15.6,21.31-42.08,35.68-83.22,35.68C336.67,397.57,293.17,384.69,293.17,329.69ZM394.83,355c37.83,0,56.27-27.26,56.27-64.92v-10.4c-33.57,19.32-92.68,5.45-92.68,46.08C358.42,343.56,370.25,355,394.83,355Z"/><path class="cls-1" d="M560.33,491.72V151.3H616.6l5.2,29.24c16.55-23.29,41.14-34.2,73.29-34.2,59.11,0,102.61,38.66,102.61,125.37s-43,125.86-102.61,125.86c-31.68,0-56.74-11.4-73.29-34.68V491.72ZM621.8,298c7.09,33.7,27.9,48.56,54.85,48.56,33.1,0,57.22-21.8,57.22-74.82s-24.12-74.82-57.22-74.82c-27.42,0-48.23,14.37-54.85,48.56Z"/><path class="cls-3" d="M1171.5,55.67h60.4V333.15h143.61v59.47h-204Z"/><path class="cls-3" d="M1513.31,146.34c59.06,0,106.48,35.68,108.72,102.08v39.15h-162c3.13,37.16,19.69,61.44,54.58,61.44,19.69,0,37.58-8.42,45.19-30.72h58.61c-8,49-44.29,79.28-105.14,79.28-65.32,0-113.19-38.65-113.19-125.36S1448,146.34,1513.31,146.34Zm48.32,101.09c0-33.69-20.58-52.52-49.66-52.52-30.87,0-46.08,21.3-50.56,52.52Z"/><path class="cls-3" d="M1642.16,197.38V151.3h36.24V83.41h58.16V151.3h56.37v46.08h-56.37V300.45c0,31.71,4.92,38.15,28.63,38.15h29.08v54h-40.71c-46.08,0-75.16-17.35-75.16-73.34V197.38Z"/><path class="cls-3" d="M1825.59,299V151.3h58.16V294.5c0,36.67,19.24,49.06,43,49.06,36.24,0,51.9-32.21,51.9-84.24v-108h57.71V392.62h-53.24L1979.94,356c-14.76,26.26-38.47,41.62-74.71,41.62C1855.12,397.57,1825.14,368.34,1825.59,299Z"/><path class="cls-1" d="M843.83,482.19h31.71c18,0,28.06,6.54,28.06,22.08,0,9.49-3.87,15.41-9.92,18.87,8,2.83,13.92,8.51,13.92,19,0,18.62-11.18,23.92-30.58,23.92H843.83Zm15.4,14.19V518h16.65c7.3,0,12.55-3.58,12.55-11.1s-5.7-10.48-13.12-10.48Zm0,33.17v22.32h17.91c9.12,0,14.71-3.45,14.71-10.85,0-8.14-5.59-11.47-14.83-11.47Z"/><path class="cls-1" d="M916.73,542.75V506h14.83v35.64c0,9.12,4.9,12.2,11,12.2,9.24,0,13.23-8,13.23-21V506h14.71v60H956.88l-.8-9.12c-3.76,6.53-9.81,10.36-19.05,10.36C924.25,567.29,916.61,560,916.73,542.75Z"/><path class="cls-1" d="M981.87,495.88V482.19H996.7v13.69Zm0,10.12H996.7v60H981.87Z"/><path class="cls-1" d="M1008.1,482.19h14.83v83.86H1008.1Z"/><path class="cls-1" d="M1030.92,517.46V506h9.24V489.1H1055V506h14.37v11.46H1055v25.66c0,7.89,1.26,9.49,7.3,9.49h7.42v13.44h-10.38c-11.75,0-19.17-4.31-19.17-18.25V517.46Z"/><path class="cls-1" d="M1110.89,506v-3.09c0-13.69,7.3-20.72,18.48-20.72h11.52V495h-7.76c-5.7,0-7.41,3.08-7.41,9.37V506h12.78v11.46h-12.78v48.59h-14.83V517.46h-7.64V506Z"/><path class="cls-1" d="M1141.46,536.09c0-21.58,12.32-31.33,29.21-31.33s29.2,9.75,29.2,31.33-12.21,31.2-29.2,31.2S1141.46,557.67,1141.46,536.09Zm29.21,18.62c8,0,13.91-5.55,13.91-18.62s-5.93-18.63-13.91-18.63-13.81,5.43-13.81,18.63S1162.68,554.71,1170.67,554.71Z"/><path class="cls-1" d="M1208.43,506h13.69l.91,10.48c5-7.89,12.21-11.1,21-11.1v16a26.46,26.46,0,0,0-3.08-.25c-8.9,0-16.54,5.92-17.68,17.64v27.25h-14.83Z"/><path class="cls-1" d="M1316.8,481c17.68,0,31.49,8.76,34.91,28.24h-16.88c-2.51-9-9.58-13.19-18-13.19-12.2,0-21.67,8.38-21.67,28.11s9.47,28,22.59,28c11.86,0,18.48-8,18.13-18.38h-20V520.55h36.39v45.5h-12.09l-1.26-10.36c-4.1,6.54-11.18,11.6-23.49,11.6-21.22,0-36.28-13.32-36.28-43.17S1295,481,1316.8,481Z"/><path class="cls-1" d="M1363.69,506h13.69l.92,10.48c5-7.89,12.2-11.1,21-11.1v16a26.46,26.46,0,0,0-3.08-.25c-8.89,0-16.54,5.92-17.68,17.64v27.25h-14.83Z"/><path class="cls-1" d="M1404.19,536.09c0-21.58,12.32-31.33,29.2-31.33s29.21,9.75,29.21,31.33-12.21,31.2-29.21,31.2S1404.19,557.67,1404.19,536.09Zm29.2,18.62c8,0,13.92-5.55,13.92-18.62s-5.93-18.63-13.92-18.63-13.8,5.43-13.8,18.63S1425.41,554.71,1433.39,554.71Z"/><path class="cls-1" d="M1471.16,542.75V506H1486v35.64c0,9.12,4.9,12.2,11,12.2,9.24,0,13.23-8,13.23-21V506h14.72v60h-13.58l-.8-9.12c-3.76,6.53-9.81,10.36-19,10.36C1478.69,567.29,1471,560,1471.16,542.75Z"/><path class="cls-1" d="M1536.3,590.72V506h13.57l1.26,7.27c4-5.79,9.92-8.51,17.68-8.51,14.26,0,24.75,9.62,24.75,31.2s-10.38,31.33-24.75,31.33c-7.64,0-13.69-2.84-17.68-8.64v32.07Zm14.83-48.22c1.71,8.39,6.73,12.08,13.23,12.08,8,0,13.8-5.42,13.8-18.62s-5.81-18.62-13.8-18.62c-6.62,0-11.63,3.58-13.23,12.09Z"/><path class="cls-1" d="M1632.92,566.05V482.19h56.24V497h-40.84V518.2h33.43v14.31h-33.43v33.54Z"/><path class="cls-1" d="M1697.72,495.88V482.19h14.83v13.69Zm0,10.12h14.83v60h-14.83Z"/><path class="cls-1" d="M1724,506h13.69l.91,9.24c3.65-6.53,9.7-10.48,19.17-10.48,12.77,0,20.42,7.28,20.3,24.67v36.62h-14.71V530.41c0-9-5-12.21-11.18-12.21-9.36,0-13.35,8-13.35,21v26.88H1724Z"/><path class="cls-1" d="M1786.93,550.39c0-25,37.19-13.32,38.1-25-.34-6.29-3.65-9.13-10.61-9.13-6.73,0-10.26,2.1-10.83,8.88h-14.38c.57-11.59,7.42-20.35,25.33-20.35,16.08,0,25.21,6.42,25.21,20.6V547.8c0,3.7,1,5.18,3.08,5.18h1.94v13.07h-5.71c-6.73,0-10.38-2.46-12.09-7.64-3.76,5.3-10.15,8.88-20.07,8.88C1797.43,567.29,1786.93,564.08,1786.93,550.39Zm24.53,6.29c9.12,0,13.57-6.78,13.57-16.15v-2.59c-8.1,4.81-22.36,1.35-22.36,11.47C1802.67,553.84,1805.53,556.68,1811.46,556.68Z"/><path class="cls-1" d="M1851.39,506h13.69l.91,9.24c3.65-6.53,9.7-10.48,19.16-10.48,12.78,0,20.42,7.28,20.31,24.67v36.62h-14.72V530.41c0-9-5-12.21-11.18-12.21-9.35,0-13.34,8-13.34,21v26.88h-14.83Z"/><path class="cls-1" d="M1914,536.09c0-21.58,12.43-31.33,29.2-31.33,14.6,0,25.21,7.16,28,22.82h-15.4c-2-7.16-6.62-10.12-12.55-10.12-7.76,0-13.8,5.43-13.8,18.63s6,18.62,13.8,18.62c6,0,10.61-3.21,12.66-10.48h15.29c-2.62,15.78-13.35,23.06-28,23.06C1926.45,567.29,1914,557.67,1914,536.09Z"/><path class="cls-1" d="M2005.74,504.76c15.06,0,27.15,8.88,27.72,25.41v9.74h-41.3c.8,9.25,5,15.29,13.92,15.29,5,0,9.58-2.1,11.52-7.64h15c-2.06,12.2-11.3,19.73-26.81,19.73-16.66,0-28.86-9.62-28.86-31.2S1989.08,504.76,2005.74,504.76Zm12.32,25.16c0-8.39-5.25-13.07-12.66-13.07-7.88,0-11.75,5.3-12.89,13.07Z"/></g></g></svg>